# xmcd
#
# Track frame offsets: 
#        150
#        12505
#        30375
#        48942
#        68930
#        83182
#        103250
#        117527
#        137227
#        156210
#
# Disc length: 2182 seconds
#
# Revision: 0
# Processed by: cddbd v1.5.2PL0 Copyright (c) Steve Scherf et al.
# Submitted via: ExactAudioCopy v0.99pb3
#
DISCID=8708840a
DTITLE=Tania Tsanaklidou - metamorfoseis
DYEAR=1900
DGENRE=
TTITLE0=orient express
TTITLE1=stis monaksias mou tin poli
TTITLE2=ifigenia
TTITLE3=tha rtho san aggelos
TTITLE4=gkrizes mpallantes
TTITLE5=i volglio bene
TTITLE6=ta sfigmena sou xeili
TTITLE7=etsi eimai ego
TTITLE8=sunantisi
TTITLE9=nanourisma gia romantiko psifoforo
EXTD=
EXTT0=
EXTT1=
EXTT2=
EXTT3=
EXTT4=
EXTT5=
EXTT6=
EXTT7=
EXTT8=
EXTT9=
PLAYORDER=
